STARTFONT 2.1
FONT d12iluci
SIZE 14 78 78
FONTBOUNDINGBOX 14 15 0 -3
STARTPROPERTIES 4
Copyright "Copyright (c) 1988 AT&T, Inc"
FONT_ASCENT 12
FONT_DESCENT 3
DEFAULT_CHAR 32
ENDPROPERTIES
CHARS 96
STARTCHAR C001
ENCODING 1
SWIDTH 126 0
DWIDTH 9 0
BBX 9 15 0 -3
BITMAP
0000
0000
0000
0000
0000
0000
0000
0000
0000
0000
0000
0000
0000
0000
0000
ENDCHAR
STARTCHAR C040
ENCODING 32
SWIDTH 98 0
DWIDTH 7 0
BBX 7 15 0 -3
BITMAP
00
00
00
00
00
00
00
00
00
00
00
00
00
00
00
ENDCHAR
STARTCHAR !
ENCODING 33
SWIDTH 84 0
DWIDTH 6 0
BBX 6 15 0 -3
BITMAP
00
00
00
18
18
18
30
30
30
20
00
60
60
00
00
ENDCHAR
STARTCHAR "
ENCODING 34
SWIDTH 112 0
DWIDTH 8 0
BBX 8 15 0 -3
BITMAP
00
00
36
36
24
48
00
00
00
00
00
00
00
00
00
ENDCHAR
STARTCHAR #
ENCODING 35
SWIDTH 126 0
DWIDTH 9 0
BBX 9 15 0 -3
BITMAP
0000
0000
0000
1200
1200
1200
7f00
2400
2400
fe00
4800
4800
4800
0000
0000
ENDCHAR
STARTCHAR $
ENCODING 36
SWIDTH 126 0
DWIDTH 9 0
BBX 9 15 0 -3
BITMAP
0000
0000
0400
1e00
3500
3400
3800
1800
0c00
0e00
1600
5600
3c00
1000
0000
ENDCHAR
STARTCHAR %
ENCODING 37
SWIDTH 168 0
DWIDTH 12 0
BBX 12 15 0 -3
BITMAP
0000
0000
0000
1800
6c40
6c80
3100
0200
0400
08c0
1360
2360
0180
0000
0000
ENDCHAR
STARTCHAR &
ENCODING 38
SWIDTH 154 0
DWIDTH 11 0
BBX 11 15 0 -3
BITMAP
0000
0000
0000
0f00
1980
1980
0b00
1c00
2cc0
66c0
6680
7300
3d80
0000
0000
ENDCHAR
STARTCHAR '
ENCODING 39
SWIDTH 70 0
DWIDTH 5 0
BBX 5 15 0 -3
BITMAP
00
00
30
30
20
40
00
00
00
00
00
00
00
00
00
ENDCHAR
STARTCHAR (
ENCODING 40
SWIDTH 98 0
DWIDTH 7 0
BBX 7 15 0 -3
BITMAP
00
00
0c
18
30
30
60
60
60
60
60
60
30
18
00
ENDCHAR
STARTCHAR )
ENCODING 41
SWIDTH 84 0
DWIDTH 6 0
BBX 6 15 0 -3
BITMAP
00
00
60
30
18
18
18
18
18
18
30
30
60
c0
00
ENDCHAR
STARTCHAR *
ENCODING 42
SWIDTH 112 0
DWIDTH 8 0
BBX 8 15 0 -3
BITMAP
00
00
00
08
2a
1c
38
54
10
00
00
00
00
00
00
ENDCHAR
STARTCHAR +
ENCODING 43
SWIDTH 140 0
DWIDTH 10 0
BBX 10 15 0 -3
BITMAP
0000
0000
0000
0000
0000
0200
0200
0400
3f80
0400
0800
0800
0000
0000
0000
ENDCHAR
STARTCHAR ,
ENCODING 44
SWIDTH 56 0
DWIDTH 4 0
BBX 4 15 0 -3
BITMAP
00
00
00
00
00
00
00
00
00
00
00
60
60
40
80
ENDCHAR
STARTCHAR -
ENCODING 45
SWIDTH 140 0
DWIDTH 10 0
BBX 10 15 0 -3
BITMAP
0000
0000
0000
0000
0000
0000
0000
0000
3f80
0000
0000
0000
0000
0000
0000
ENDCHAR
STARTCHAR .
ENCODING 46
SWIDTH 56 0
DWIDTH 4 0
BBX 4 15 0 -3
BITMAP
00
00
00
00
00
00
00
00
00
00
00
60
60
00
00
ENDCHAR
STARTCHAR /
ENCODING 47
SWIDTH 126 0
DWIDTH 9 0
BBX 9 15 0 -3
BITMAP
0000
0000
0000
0300
0300
0600
0c00
0c00
1800
1800
3000
6000
6000
0000
0000
ENDCHAR
STARTCHAR 0
ENCODING 48
SWIDTH 126 0
DWIDTH 9 0
BBX 9 15 0 -3
BITMAP
0000
0000
0000
1e00
3300
3300
3300
3300
6600
6600
6600
6600
3c00
0000
0000
ENDCHAR
STARTCHAR 1
ENCODING 49
SWIDTH 126 0
DWIDTH 9 0
BBX 9 15 0 -3
BITMAP
0000
0000
0000
0c00
1c00
2c00
0c00
0c00
1800
1800
1800
1800
1800
0000
0000
ENDCHAR
STARTCHAR 2
ENCODING 50
SWIDTH 126 0
DWIDTH 9 0
BBX 9 15 0 -3
BITMAP
0000
0000
0000
1e00
2300
0300
0300
0600
0c00
1000
2000
7e00
7e00
0000
0000
ENDCHAR
STARTCHAR 3
ENCODING 51
SWIDTH 126 0
DWIDTH 9 0
BBX 9 15 0 -3
BITMAP
0000
0000
0000
1e00
2300
0300
0600
1c00
0600
0600
0600
4c00
3800
0000
0000
ENDCHAR
STARTCHAR 4
ENCODING 52
SWIDTH 126 0
DWIDTH 9 0
BBX 9 15 0 -3
BITMAP
0000
0000
0000
0600
0e00
1600
2600
2600
4c00
7f00
0c00
0c00
0c00
0000
0000
ENDCHAR
STARTCHAR 5
ENCODING 53
SWIDTH 126 0
DWIDTH 9 0
BBX 9 15 0 -3
BITMAP
0000
0000
0000
1f00
1f00
1000
2000
3c00
0e00
0600
0600
4c00
3800
0000
0000
ENDCHAR
STARTCHAR 6
ENCODING 54
SWIDTH 126 0
DWIDTH 9 0
BBX 9 15 0 -3
BITMAP
0000
0000
0000
0e00
1900
3000
3000
3c00
6600
6600
6600
6600
3c00
0000
0000
ENDCHAR
STARTCHAR 7
ENCODING 55
SWIDTH 126 0
DWIDTH 9 0
BBX 9 15 0 -3
BITMAP
0000
0000
0000
3f00
3f00
0300
0600
0c00
1800
3000
3000
6000
6000
0000
0000
ENDCHAR
STARTCHAR 8
ENCODING 56
SWIDTH 126 0
DWIDTH 9 0
BBX 9 15 0 -3
BITMAP
0000
0000
0000
1e00
3300
3300
3a00
1c00
2e00
6600
6600
6600
3c00
0000
0000
ENDCHAR
STARTCHAR 9
ENCODING 57
SWIDTH 126 0
DWIDTH 9 0
BBX 9 15 0 -3
BITMAP
0000
0000
0000
1e00
3300
3300
3300
3300
1e00
0600
0600
4c00
3800
0000
0000
ENDCHAR
STARTCHAR :
ENCODING 58
SWIDTH 70 0
DWIDTH 5 0
BBX 5 15 0 -3
BITMAP
00
00
00
00
00
00
30
30
00
00
00
60
60
00
00
ENDCHAR
STARTCHAR ;
ENCODING 59
SWIDTH 70 0
DWIDTH 5 0
BBX 5 15 0 -3
BITMAP
00
00
00
00
00
00
30
30
00
00
00
60
60
40
80
ENDCHAR
STARTCHAR <
ENCODING 60
SWIDTH 126 0
DWIDTH 9 0
BBX 9 15 0 -3
BITMAP
0000
0000
0000
0000
0000
0100
0700
1c00
3000
1800
0c00
0400
0000
0000
0000
ENDCHAR
STARTCHAR =
ENCODING 61
SWIDTH 140 0
DWIDTH 10 0
BBX 10 15 0 -3
BITMAP
0000
0000
0000
0000
0000
0000
0000
1f80
0000
3f00
0000
0000
0000
0000
0000
ENDCHAR
STARTCHAR >
ENCODING 62
SWIDTH 126 0
DWIDTH 9 0
BBX 9 15 0 -3
BITMAP
0000
0000
0000
0000
0000
0800
0c00
0600
0300
0e00
3800
2000
0000
0000
0000
ENDCHAR
STARTCHAR ?
ENCODING 63
SWIDTH 112 0
DWIDTH 8 0
BBX 8 15 0 -3
BITMAP
00
00
00
1c
26
06
0e
1c
30
20
00
60
60
00
00
ENDCHAR
STARTCHAR @
ENCODING 64
SWIDTH 168 0
DWIDTH 12 0
BBX 12 15 0 -3
BITMAP
0000
0000
0000
0780
1840
2060
23e0
4660
4cc0
4cc0
4760
2000
1f80
0000
0000
ENDCHAR
STARTCHAR A
ENCODING 65
SWIDTH 126 0
DWIDTH 9 0
BBX 9 15 0 -3
BITMAP
0000
0000
0000
0600
0700
0b00
1b00
1300
3300
3f00
6300
6300
6300
0000
0000
ENDCHAR
STARTCHAR B
ENCODING 66
SWIDTH 126 0
DWIDTH 9 0
BBX 9 15 0 -3
BITMAP
0000
0000
0000
3e00
3300
3300
3200
3c00
6600
6600
6600
6600
7c00
0000
0000
ENDCHAR
STARTCHAR C
ENCODING 67
SWIDTH 140 0
DWIDTH 10 0
BBX 10 15 0 -3
BITMAP
0000
0000
0000
0700
1980
3000
3000
6000
6000
6000
6000
7200
3c00
0000
0000
ENDCHAR
STARTCHAR D
ENCODING 68
SWIDTH 140 0
DWIDTH 10 0
BBX 10 15 0 -3
BITMAP
0000
0000
0000
3f00
3180
3180
3180
3180
6180
6300
6300
6600
7c00
0000
0000
ENDCHAR
STARTCHAR E
ENCODING 69
SWIDTH 112 0
DWIDTH 8 0
BBX 8 15 0 -3
BITMAP
00
00
00
3e
30
30
30
3c
60
60
60
60
7c
00
00
ENDCHAR
STARTCHAR F
ENCODING 70
SWIDTH 112 0
DWIDTH 8 0
BBX 8 15 0 -3
BITMAP
00
00
00
3e
30
30
30
3c
60
60
60
60
60
00
00
ENDCHAR
STARTCHAR G
ENCODING 71
SWIDTH 140 0
DWIDTH 10 0
BBX 10 15 0 -3
BITMAP
0000
0000
0000
0700
1980
3000
3000
6000
6000
6300
6300
7300
3e00
0000
0000
ENDCHAR
STARTCHAR H
ENCODING 72
SWIDTH 140 0
DWIDTH 10 0
BBX 10 15 0 -3
BITMAP
0000
0000
0000
3180
3180
3180
3180
3f80
6300
6300
6300
6300
6300
0000
0000
ENDCHAR
STARTCHAR I
ENCODING 73
SWIDTH 70 0
DWIDTH 5 0
BBX 5 15 0 -3
BITMAP
00
00
00
30
30
30
30
30
60
60
60
60
60
00
00
ENDCHAR
STARTCHAR J
ENCODING 74
SWIDTH 98 0
DWIDTH 7 0
BBX 7 15 0 -3
BITMAP
00
00
00
0c
0c
0c
0c
0c
18
18
18
18
30
30
e0
ENDCHAR
STARTCHAR K
ENCODING 75
SWIDTH 126 0
DWIDTH 9 0
BBX 9 15 0 -3
BITMAP
0000
0000
0000
3100
3100
3200
3400
3800
6c00
6c00
6600
6600
6300
0000
0000
ENDCHAR
STARTCHAR L
ENCODING 76
SWIDTH 98 0
DWIDTH 7 0
BBX 7 15 0 -3
BITMAP
00
00
00
30
30
30
30
30
60
60
60
60
7c
00
00
ENDCHAR
STARTCHAR M
ENCODING 77
SWIDTH 182 0
DWIDTH 13 0
BBX 13 15 0 -3
BITMAP
0000
0000
0000
3c70
3c70
2cb0
2cb0
2d30
4d60
4e60
4e60
4c60
4060
0000
0000
ENDCHAR
STARTCHAR N
ENCODING 78
SWIDTH 140 0
DWIDTH 10 0
BBX 10 15 0 -3
BITMAP
0000
0000
0000
3880
3880
2c80
2c80
2c80
4d00
4d00
4d00
4700
4700
0000
0000
ENDCHAR
STARTCHAR O
ENCODING 79
SWIDTH 154 0
DWIDTH 11 0
BBX 11 15 0 -3
BITMAP
0000
0000
0000
0780
19c0
30c0
30c0
60c0
60c0
6180
6180
7300
3c00
0000
0000
ENDCHAR
STARTCHAR P
ENCODING 80
SWIDTH 126 0
DWIDTH 9 0
BBX 9 15 0 -3
BITMAP
0000
0000
0000
3e00
3300
3300
3300
3200
7c00
6000
6000
6000
6000
0000
0000
ENDCHAR
STARTCHAR Q
ENCODING 81
SWIDTH 154 0
DWIDTH 11 0
BBX 11 15 0 -3
BITMAP
0000
0000
0000
0780
19c0
30c0
30c0
60c0
60c0
6180
6180
7300
3c00
0600
0300
ENDCHAR
STARTCHAR R
ENCODING 82
SWIDTH 140 0
DWIDTH 10 0
BBX 10 15 0 -3
BITMAP
0000
0000
0000
3e00
3300
3300
3200
3c00
6400
6600
6600
6300
6380
0000
0000
ENDCHAR
STARTCHAR S
ENCODING 83
SWIDTH 126 0
DWIDTH 9 0
BBX 9 15 0 -3
BITMAP
0000
0000
0000
1e00
3300
3000
3800
1c00
0e00
0600
0600
6600
3c00
0000
0000
ENDCHAR
STARTCHAR T
ENCODING 84
SWIDTH 140 0
DWIDTH 10 0
BBX 10 15 0 -3
BITMAP
0000
0000
0000
7f80
0c00
0c00
0c00
0c00
1800
1800
1800
1800
1800
0000
0000
ENDCHAR
STARTCHAR U
ENCODING 85
SWIDTH 140 0
DWIDTH 10 0
BBX 10 15 0 -3
BITMAP
0000
0000
0000
3180
3180
3180
3180
3180
6100
6300
6300
3200
1c00
0000
0000
ENDCHAR
STARTCHAR V
ENCODING 86
SWIDTH 126 0
DWIDTH 9 0
BBX 9 15 0 -3
BITMAP
0000
0000
0000
6300
6300
6300
6600
6600
6400
6c00
6800
3000
3000
0000
0000
ENDCHAR
STARTCHAR W
ENCODING 87
SWIDTH 196 0
DWIDTH 14 0
BBX 14 15 0 -3
BITMAP
0000
0000
0000
6018
6318
6318
6330
6730
6720
6b40
6b40
3180
3180
0000
0000
ENDCHAR
STARTCHAR X
ENCODING 88
SWIDTH 140 0
DWIDTH 10 0
BBX 10 15 0 -3
BITMAP
0000
0000
0000
3180
3180
1900
1a00
0c00
0c00
1600
2600
6300
6300
0000
0000
ENDCHAR
STARTCHAR Y
ENCODING 89
SWIDTH 126 0
DWIDTH 9 0
BBX 9 15 0 -3
BITMAP
0000
0000
0000
6300
6300
6200
6600
6400
6800
3000
3000
3000
3000
0000
0000
ENDCHAR
STARTCHAR Z
ENCODING 90
SWIDTH 126 0
DWIDTH 9 0
BBX 9 15 0 -3
BITMAP
0000
0000
0000
3f00
0300
0600
0c00
1800
3000
6000
c000
c000
fc00
0000
0000
ENDCHAR
STARTCHAR [
ENCODING 91
SWIDTH 98 0
DWIDTH 7 0
BBX 7 15 0 -3
BITMAP
00
00
3c
30
30
30
60
60
60
60
c0
c0
c0
f0
00
ENDCHAR
STARTCHAR \
ENCODING 92
SWIDTH 98 0
DWIDTH 7 0
BBX 7 15 0 -3
BITMAP
00
00
00
30
30
30
18
18
18
18
0c
0c
0c
00
00
ENDCHAR
STARTCHAR ]
ENCODING 93
SWIDTH 98 0
DWIDTH 7 0
BBX 7 15 0 -3
BITMAP
00
00
3c
0c
0c
0c
18
18
18
18
30
30
30
f0
00
ENDCHAR
STARTCHAR ^
ENCODING 94
SWIDTH 126 0
DWIDTH 9 0
BBX 9 15 0 -3
BITMAP
0000
0000
0000
0100
0300
0500
0900
1100
3100
2100
0000
0000
0000
0000
0000
ENDCHAR
STARTCHAR _
ENCODING 95
SWIDTH 140 0
DWIDTH 10 0
BBX 10 15 0 -3
BITMAP
0000
0000
0000
0000
0000
0000
0000
0000
0000
0000
0000
0000
0000
7f80
0000
ENDCHAR
STARTCHAR `
ENCODING 96
SWIDTH 70 0
DWIDTH 5 0
BBX 5 15 0 -3
BITMAP
00
00
10
20
60
60
00
00
00
00
00
00
00
00
00
ENDCHAR
STARTCHAR a
ENCODING 97
SWIDTH 126 0
DWIDTH 9 0
BBX 9 15 0 -3
BITMAP
0000
0000
0000
0000
0000
1f00
3300
3300
6300
6600
6600
6600
3a00
0000
0000
ENDCHAR
STARTCHAR b
ENCODING 98
SWIDTH 126 0
DWIDTH 9 0
BBX 9 15 0 -3
BITMAP
0000
0000
1800
1800
1800
3600
3b00
3300
3300
6300
6600
6600
7c00
0000
0000
ENDCHAR
STARTCHAR c
ENCODING 99
SWIDTH 112 0
DWIDTH 8 0
BBX 8 15 0 -3
BITMAP
00
00
00
00
00
0e
30
30
60
60
60
64
38
00
00
ENDCHAR
STARTCHAR d
ENCODING 100
SWIDTH 140 0
DWIDTH 10 0
BBX 10 15 0 -3
BITMAP
0000
0000
0180
0180
0180
1f00
3300
3300
6300
6600
6600
6600
3a00
0000
0000
ENDCHAR
STARTCHAR e
ENCODING 101
SWIDTH 112 0
DWIDTH 8 0
BBX 8 15 0 -3
BITMAP
00
00
00
00
00
0c
36
26
64
78
60
64
38
00
00
ENDCHAR
STARTCHAR f
ENCODING 102
SWIDTH 112 0
DWIDTH 8 0
BBX 8 15 0 -3
BITMAP
00
00
0e
18
18
7e
30
30
30
30
30
60
60
60
60
ENDCHAR
STARTCHAR g
ENCODING 103
SWIDTH 126 0
DWIDTH 9 0
BBX 9 15 0 -3
BITMAP
0000
0000
0000
0000
0000
1f00
3300
3300
6300
6600
6e00
3600
0600
cc00
7800
ENDCHAR
STARTCHAR h
ENCODING 104
SWIDTH 126 0
DWIDTH 9 0
BBX 9 15 0 -3
BITMAP
0000
0000
1800
1800
1800
3600
3b00
3300
3300
6600
6600
6600
6600
0000
0000
ENDCHAR
STARTCHAR i
ENCODING 105
SWIDTH 84 0
DWIDTH 6 0
BBX 6 15 0 -3
BITMAP
00
00
18
30
00
30
30
30
30
60
60
60
60
00
00
ENDCHAR
STARTCHAR j
ENCODING 106
SWIDTH 98 0
DWIDTH 7 0
BBX 7 15 0 -3
BITMAP
00
00
0c
18
00
18
18
18
18
30
30
30
30
30
e0
ENDCHAR
STARTCHAR k
ENCODING 107
SWIDTH 126 0
DWIDTH 9 0
BBX 9 15 0 -3
BITMAP
0000
0000
1800
1800
1800
1900
3300
3600
3800
6c00
6c00
6600
6300
0000
0000
ENDCHAR
STARTCHAR l
ENCODING 108
SWIDTH 84 0
DWIDTH 6 0
BBX 6 15 0 -3
BITMAP
00
00
18
18
18
30
30
30
30
60
60
60
60
00
00
ENDCHAR
STARTCHAR m
ENCODING 109
SWIDTH 182 0
DWIDTH 13 0
BBX 13 15 0 -3
BITMAP
0000
0000
0000
0000
0000
3660
3bb0
3330
3330
6660
6660
6660
6660
0000
0000
ENDCHAR
STARTCHAR n
ENCODING 110
SWIDTH 126 0
DWIDTH 9 0
BBX 9 15 0 -3
BITMAP
0000
0000
0000
0000
0000
3600
3b00
3300
3300
6600
6600
6600
6600
0000
0000
ENDCHAR
STARTCHAR o
ENCODING 111
SWIDTH 126 0
DWIDTH 9 0
BBX 9 15 0 -3
BITMAP
0000
0000
0000
0000
0000
0e00
3300
3300
6300
6300
6600
6600
3800
0000
0000
ENDCHAR
STARTCHAR p
ENCODING 112
SWIDTH 126 0
DWIDTH 9 0
BBX 9 15 0 -3
BITMAP
0000
0000
0000
0000
0000
3600
3b00
3300
3300
6300
6600
6600
7c00
c000
c000
ENDCHAR
STARTCHAR q
ENCODING 113
SWIDTH 126 0
DWIDTH 9 0
BBX 9 15 0 -3
BITMAP
0000
0000
0000
0000
0000
1f00
3300
3300
6300
6600
6600
6e00
3600
0c00
0c00
ENDCHAR
STARTCHAR r
ENCODING 114
SWIDTH 112 0
DWIDTH 8 0
BBX 8 15 0 -3
BITMAP
00
00
00
00
00
36
36
38
30
60
60
60
60
00
00
ENDCHAR
STARTCHAR s
ENCODING 115
SWIDTH 112 0
DWIDTH 8 0
BBX 8 15 0 -3
BITMAP
00
00
00
00
00
1e
30
30
38
1c
0c
0c
78
00
00
ENDCHAR
STARTCHAR t
ENCODING 116
SWIDTH 98 0
DWIDTH 7 0
BBX 7 15 0 -3
BITMAP
00
00
00
08
18
7c
30
30
30
60
60
60
38
00
00
ENDCHAR
STARTCHAR u
ENCODING 117
SWIDTH 126 0
DWIDTH 9 0
BBX 9 15 0 -3
BITMAP
0000
0000
0000
0000
0000
3300
3300
3300
3300
6600
6600
6e00
3600
0000
0000
ENDCHAR
STARTCHAR v
ENCODING 118
SWIDTH 112 0
DWIDTH 8 0
BBX 8 15 0 -3
BITMAP
00
00
00
00
00
66
66
66
64
6c
68
70
60
00
00
ENDCHAR
STARTCHAR w
ENCODING 119
SWIDTH 168 0
DWIDTH 12 0
BBX 12 15 0 -3
BITMAP
0000
0000
0000
0000
0000
6060
6660
6660
6660
6b40
6b40
7380
6300
0000
0000
ENDCHAR
STARTCHAR x
ENCODING 120
SWIDTH 126 0
DWIDTH 9 0
BBX 9 15 0 -3
BITMAP
0000
0000
0000
0000
0000
3300
3300
3200
1c00
3800
4c00
cc00
cc00
0000
0000
ENDCHAR
STARTCHAR y
ENCODING 121
SWIDTH 126 0
DWIDTH 9 0
BBX 9 15 0 -3
BITMAP
0000
0000
0000
0000
0000
3300
3300
3300
3200
3600
3400
3800
3000
6000
c000
ENDCHAR
STARTCHAR z
ENCODING 122
SWIDTH 112 0
DWIDTH 8 0
BBX 8 15 0 -3
BITMAP
00
00
00
00
00
7e
06
0c
18
30
60
c0
fc
00
00
ENDCHAR
STARTCHAR {
ENCODING 123
SWIDTH 98 0
DWIDTH 7 0
BBX 7 15 0 -3
BITMAP
00
00
0c
18
30
30
30
10
60
10
60
c0
c0
60
00
ENDCHAR
STARTCHAR |
ENCODING 124
SWIDTH 84 0
DWIDTH 6 0
BBX 6 15 0 -3
BITMAP
00
00
00
18
18
18
18
30
30
30
60
60
60
60
00
ENDCHAR
STARTCHAR }
ENCODING 125
SWIDTH 98 0
DWIDTH 7 0
BBX 7 15 0 -3
BITMAP
00
00
18
0c
0c
18
20
18
20
30
30
30
60
c0
00
ENDCHAR
STARTCHAR ~
ENCODING 126
SWIDTH 154 0
DWIDTH 11 0
BBX 11 15 0 -3
BITMAP
0000
0000
0000
0000
0000
0000
0000
0c40
1680
2300
0000
0000
0000
0000
0000
ENDCHAR
ENDFONT
